<svg viewBox="0 0 200 200" xmlns="http://www.w3.org/2000/svg">
  <defs>
    <radialGradient id="tile" cx="50%" cy="42%" r="75%">
      <stop offset="0%" stop-color="#829ea6"/>
      <stop offset="100%" stop-color="#718ba0"/>
    </radialGradient>
  </defs>
  <rect width="200" height="200" fill="url(#tile)"/>
  <path d="M 169.0,142.5 L 139.5,142.0 L 139.0,64.5 L 108.0,142.5 L 89.0,142.5 L 87.5,141.0 L 58.0,64.5 L 57.5,142.0 L 30.0,142.5 L 29.5,27.0 L 70.0,26.5 L 71.5,28.0 L 98.5,101.0 L 100.0,101.5 L 127.5,27.0 L 169.0,26.5 L 169.0,142.5 Z M 43.0,171.5 L 35.0,171.5 L 28.5,168.0 L 31.0,164.5 L 39.0,168.5 L 43.5,166.0 L 43.0,163.5 L 33.0,160.5 L 29.5,157.0 L 29.5,153.0 L 35.0,148.5 L 44.0,148.5 L 48.5,152.0 L 46.0,154.5 L 41.0,151.5 L 34.5,154.0 L 36.0,156.5 L 44.0,158.5 L 48.5,162.0 L 48.5,168.0 L 43.0,171.5 Z M 71.0,171.5 L 53.5,171.0 L 54.0,148.5 L 71.5,149.0 L 71.0,152.5 L 60.0,152.5 L 58.5,154.0 L 60.0,158.5 L 67.5,159.0 L 67.0,161.5 L 60.0,160.5 L 58.5,166.0 L 70.0,166.5 L 71.0,171.5 Z M 96.0,171.5 L 91.0,171.5 L 89.0,166.5 L 81.0,166.5 L 78.0,171.5 L 73.5,171.0 L 82.0,148.5 L 88.5,150.0 L 96.0,171.5 Z M 120.0,171.5 L 114.5,171.0 L 113.5,163.0 L 111.0,161.5 L 105.5,163.0 L 105.0,171.5 L 99.5,171.0 L 100.0,148.5 L 114.0,148.5 L 118.5,152.0 L 119.5,156.0 L 115.5,160.0 L 118.5,162.0 L 120.0,171.5 Z M 138.0,171.5 L 130.0,171.5 L 123.5,165.0 L 123.5,154.0 L 130.0,148.5 L 139.0,148.5 L 143.5,152.0 L 141.0,155.5 L 137.0,152.5 L 132.0,152.5 L 128.5,157.0 L 128.5,163.0 L 132.0,167.5 L 137.0,167.5 L 140.0,164.5 L 143.5,166.0 L 142.5,169.0 L 138.0,171.5 Z M 168.0,171.5 L 163.5,171.0 L 163.0,162.5 L 154.0,162.5 L 153.5,171.0 L 148.5,171.0 L 149.0,148.5 L 153.5,149.0 L 153.5,157.0 L 155.0,158.5 L 162.0,158.5 L 163.5,157.0 L 163.5,149.0 L 168.5,149.0 L 168.0,171.5 Z M 111.5,159.0 L 113.5,158.0 L 113.5,154.0 L 106.0,152.5 L 105.5,159.0 L 111.5,159.0 Z M 87.5,163.0 L 86.5,158.0 L 84.0,155.5 L 81.5,162.0 L 83.0,163.5 L 87.5,163.0 Z" fill="#f5f5f5" fill-rule="evenodd"/>
</svg>